<svg xmlns="http://www.w3.org/2000/svg" xmlns:xlink="http://www.w3.org/1999/xlink" version="1.1" x="0px" y="0px" viewBox="0 0 100 125" enable-background="new 0 0 100 100" xml:space="preserve"><path d="M44.6,84.2h-27c-0.994,0-1.8-0.806-1.8-1.8V71.6c0-0.994,0.806-1.8,1.8-1.8h6.3V37.219l-5.027,5.027  c-0.515,0.515-1.29,0.668-1.961,0.39c-0.673-0.279-1.111-0.935-1.111-1.663V25.691c0-0.477,0.19-0.935,0.527-1.273l8.091-8.091  c0.337-0.337,0.795-0.527,1.273-0.527H36.5c0.994,0,1.8,0.806,1.8,1.8v52.2h6.3c0.994,0,1.8,0.806,1.8,1.8v10.8  C46.4,83.394,45.594,84.2,44.6,84.2z M19.4,80.6h23.4v-7.2h-6.3c-0.994,0-1.8-0.806-1.8-1.8V19.4h-8.263L19.4,26.437v10.19  l5.027-5.027c0.515-0.515,1.289-0.67,1.961-0.39c0.673,0.279,1.111,0.935,1.111,1.663V71.6c0,0.994-0.806,1.8-1.8,1.8h-6.3V80.6z   M82.4,84.2h-27c-0.994,0-1.8-0.806-1.8-1.8v-27c0-0.551,0.248-1.044,0.637-1.375l10.621-10.621  c0.047-0.053,0.098-0.103,0.151-0.151l4.791-4.791V30.2H55.4c-0.994,0-1.8-0.806-1.8-1.8V17.6c0-0.994,0.806-1.8,1.8-1.8h27  c0.994,0,1.8,0.806,1.8,1.8v26.082c0,0.477-0.19,0.935-0.527,1.273L68,60.628V69.8h14.4c0.994,0,1.8,0.806,1.8,1.8v10.8  C84.2,83.394,83.394,84.2,82.4,84.2z M57.2,80.6h23.4v-7.2H66.2c-0.994,0-1.8-0.806-1.8-1.8V59.882c0-0.477,0.19-0.935,0.527-1.273  L80.6,42.936V19.4H57.2v7.2h14.4c0.994,0,1.8,0.806,1.8,1.8v10.809c0,0.477-0.19,0.935-0.527,1.273l-5.391,5.391  c-0.002,0.002-0.003,0.003-0.004,0.004c-0.002,0.002-0.003,0.003-0.004,0.004L57.2,56.154V80.6z M93.2,95H6.8  C5.806,95,5,94.194,5,93.2V6.8C5,5.806,5.806,5,6.8,5h86.4C94.194,5,95,5.806,95,6.8v86.4C95,94.194,94.194,95,93.2,95z M8.6,91.4  h82.8V8.6H8.6V91.4z"/><text x="0" y="115" fill="#000000" font-size="5px" font-weight="bold" font-family="'Helvetica Neue', Helvetica, Arial-Unicode, Arial, Sans-serif">Created by Christine Komatsu</text><text x="0" y="120" fill="#000000" font-size="5px" font-weight="bold" font-family="'Helvetica Neue', Helvetica, Arial-Unicode, Arial, Sans-serif">from the Noun Project</text></svg>