<svg xmlns="http://www.w3.org/2000/svg" xmlns:xlink="http://www.w3.org/1999/xlink" version="1.1" x="0px" y="0px" viewBox="0 0 100 125" enable-background="new 0 0 100 100" xml:space="preserve"><g><path fill="none" d="M50,60.606c-0.18,0-0.359-0.036-0.528-0.112l-18.634-8.083v19.196c0,1.045,0.851,1.897,1.896,1.897h37.398   c1.047,0,1.897-0.852,1.897-1.897v-20.44l-21.501,9.327C50.36,60.569,50.181,60.606,50,60.606z"/><path fill="none" d="M18.842,56.323c0.112-0.126,0.245-0.343,0.245-0.647c0-0.545-0.443-0.988-0.988-0.988   c-0.544,0-0.986,0.443-0.986,0.988c0,0.292,0.129,0.569,0.355,0.759c0.362,0.301,0.536,0.771,0.458,1.238l-1.367,8.095h3.13   l-1.159-8.393C18.476,56.995,18.591,56.612,18.842,56.323z"/><path fill="none" d="M10.352,40.633l8.504,3.689l25.881-3.415c0.525-1.292,2.61-2.205,5.263-2.205c3.075,0,5.394,1.226,5.394,2.846   c0,1.623-2.319,2.849-5.394,2.849c-1.684,0-3.137-0.37-4.112-0.967l-22.304,2.942L50,57.832l40.002-17.353L49.296,26.581   C43.003,28.963,19.951,37.636,10.352,40.633z"/><path fill="none" d="M54.068,41.548c0-0.617-1.585-1.518-4.068-1.518c-2.484,0-4.069,0.9-4.069,1.518   c0,0.623,1.585,1.524,4.069,1.524C52.483,43.072,54.068,42.172,54.068,41.548z"/><path d="M94.103,39.076L49.701,23.918c-0.292-0.102-0.609-0.096-0.898,0.015C33.601,29.689,8.635,38.865,6.317,39.003   c-0.624,0.006-1.162,0.446-1.289,1.057c-0.126,0.617,0.194,1.238,0.771,1.488l11.54,5.005v5.565   c-1.642,0.349-2.878,1.81-2.878,3.557c0,0.804,0.263,1.572,0.741,2.198l-1.519,8.999c-0.065,0.385,0.043,0.78,0.294,1.075   c0.252,0.298,0.623,0.473,1.013,0.473h6.221c0.383,0,0.748-0.166,1-0.455c0.252-0.289,0.366-0.675,0.313-1.054l-1.295-9.381   c0.333-0.557,0.511-1.199,0.511-1.855c0-1.313-0.702-2.464-1.748-3.102v-4.87l8.195,3.557v20.346c0,2.509,2.04,4.547,4.548,4.547   h37.398c2.509,0,4.549-2.039,4.549-4.547v-21.59l19.521-8.469c0.503-0.22,0.819-0.723,0.797-1.271   C94.977,39.729,94.621,39.253,94.103,39.076z M16.558,65.768l1.367-8.095c0.078-0.467-0.096-0.937-0.458-1.238   c-0.226-0.19-0.355-0.467-0.355-0.759c0-0.545,0.443-0.988,0.986-0.988c0.544,0,0.988,0.443,0.988,0.988   c0,0.304-0.133,0.521-0.245,0.647c-0.251,0.289-0.366,0.672-0.313,1.051l1.159,8.393H16.558z M72.029,71.607   c0,1.045-0.85,1.897-1.897,1.897H32.734c-1.045,0-1.896-0.852-1.896-1.897V52.411l18.634,8.083   c0.168,0.075,0.348,0.112,0.528,0.112c0.181,0,0.36-0.036,0.528-0.112l21.501-9.327V71.607z M50,57.832L23.585,46.373l22.304-2.942   c0.974,0.596,2.427,0.967,4.112,0.967c3.075,0,5.394-1.226,5.394-2.849c0-1.62-2.319-2.846-5.394-2.846   c-2.653,0-4.739,0.913-5.263,2.205l-25.881,3.415l-8.504-3.689c9.599-2.996,32.651-11.67,38.944-14.052l40.706,13.898L50,57.832z    M45.932,41.548c0-0.617,1.585-1.518,4.069-1.518c2.483,0,4.068,0.9,4.068,1.518c0,0.623-1.585,1.524-4.068,1.524   C47.517,43.072,45.932,42.172,45.932,41.548z"/></g><text x="0" y="115" fill="#000000" font-size="5px" font-weight="bold" font-family="'Helvetica Neue', Helvetica, Arial-Unicode, Arial, Sans-serif">Created by Prime Icons</text><text x="0" y="120" fill="#000000" font-size="5px" font-weight="bold" font-family="'Helvetica Neue', Helvetica, Arial-Unicode, Arial, Sans-serif">from the Noun Project</text></svg>
