<svg xmlns:rdf="http://www.w3.org/1999/02/22-rdf-syntax-ns#" xmlns="http://www.w3.org/2000/svg" xmlns:cc="http://creativecommons.org/ns#" xmlns:dc="http://purl.org/dc/elements/1.1/" version="1.1" x="0px" y="0px" viewBox="0 0 100 125"><g transform="translate(0,-952.36218)"><path style="baseline-shift:baseline;block-progression:tb;color:#000000;direction:ltr;text-indent:0;enable-background:accumulate;text-transform:none;" fill="#000" d="M74.469,14.562c-7.463,0-13.79,4.827-16,11.532a1.1001,1.1001,0,0,1,-0.063,0.312c-0.473,1.529-0.737,3.121-0.75,4.813a1.1001,1.1001,0,0,1,0,0.093v0.032c0,0.58,0.037,1.154,0.094,1.718,0.057,0.577,0.136,1.131,0.25,1.688,0.111,0.547,0.244,1.068,0.406,1.594,0.653,2.118,1.719,4.051,3.094,5.718,1.016,1.23,2.207,2.321,3.531,3.219,0.012,0.008,0.019,0.021,0.031,0.031,0.435,0.294,0.882,0.561,1.344,0.813,0.255,0.139,0.519,0.249,0.782,0.375,0.229,0.11,0.451,0.244,0.687,0.344h0.031c0.503,0.212,1.036,0.399,1.563,0.562,1.52,0.471,3.139,0.732,4.812,0.75,0.063,0.001,0.124,0,0.188,0,0.38,0,0.752-0.008,1.125-0.031,0.01-0.001,0.021,0.001,0.031,0,0.276-0.017,0.54,0,0.813-0.031,0.48-0.056,0.97-0.123,1.437-0.219,0.367-0.074,0.734-0.181,1.094-0.281,7.112-1.97,12.343-8.482,12.343-16.219,0-9.299-7.541-16.781-16.843-16.781v-0.032zm0,6.563a1.1001,1.1001,0,0,1,1.219,1.156v10.063a1.1001,1.1001,0,0,1,-1.094,1.094l-6.313,0.093a1.1095,1.1095,0,1,1,-0.031,-2.219l5.25-0.062v-8.969a1.1001,1.1001,0,0,1,0.969,-1.125,1.1001,1.1001,0,0,1,0,-0.031zm-62.031,6.094c-2.097,0-3.7505,1.615-3.7505,3.75v38.781c0,2.096,1.6585,3.74,3.7505,3.75l23.187,0.031a1.1001,1.1001,0,0,1,0.219,-0.031,1.1001,1.1001,0,0,1,0.094,0h14.874a1.1001,1.1001,0,0,1,0.407,0.094l22.75,0.062c1.002-0.08,2.303-0.449,3.156-1.094,0.853-0.644,1.352-1.384,1.125-2.75a1.1001,1.1001,0,0,1,-0.031,-0.156v-0.125l-0.063-19.437c-0.868,0.173-1.75,0.263-2.656,0.312v18.688a1.1001,1.1001,0,0,1,-0.531,0.937l-0.469,0.281a1.1001,1.1001,0,0,1,-0.562,0.157h-61.594a1.1001,1.1001,0,0,1,-1.094,-1.094v-38.031a1.1001,1.1001,0,0,1,1,-1.094,1.1001,1.1001,0,0,1,0.094,0h43.156c0.061-1.038,0.216-2.044,0.438-3.031h-43.5zm1,5.25v35.781h59.874v-17.844c-9.294-0.567-16.8-7.874-17.75-17.062,0-0.01,0.002-0.021,0-0.032-0.028-0.278-0.046-0.562-0.062-0.843h-42.062zm23.281,43.312l-1.313,4.563h16l-1.344-4.563h-13.343zm-4.25,6.781c-0.162,0-0.219,0.058-0.219,0.219v2.469c0,0.161,0.057,0.219,0.219,0.219h21.843c0.162,0,0.219-0.058,0.219-0.219v-2.469c0-0.16-0.057-0.219-0.219-0.219h-1.218-19.344-1.281z" transform="translate(0,952.36218)"/></g><text x="0" y="115" fill="#000000" font-size="5px" font-weight="bold" font-family="'Helvetica Neue', Helvetica, Arial-Unicode, Arial, Sans-serif">Created by Jeenan</text><text x="0" y="120" fill="#000000" font-size="5px" font-weight="bold" font-family="'Helvetica Neue', Helvetica, Arial-Unicode, Arial, Sans-serif">from the Noun Project</text></svg>