<svg xmlns="http://www.w3.org/2000/svg" xmlns:xlink="http://www.w3.org/1999/xlink" version="1.1" x="0px" y="0px" viewBox="0 0 100 125" enable-background="new 0 0 100 100" xml:space="preserve"><g><path d="M88.891,90h-3.518c-0.61-3-1.776-8.799-2.443-16.357c-0.897-10.174-17.281-20.561-26.94-24.084   c9.632-3.454,26.232-14.112,27.136-24.354C83.772,17.869,84.891,13,85.513,9h3.378C91.16,9,93,7.703,93,5.5   C93,3.297,91.16,2,88.891,2H12.109C9.84,2,8,3.297,8,5.5C8,7.703,9.84,9,12.109,9H15.3c0.575,4,1.99,8.749,3.266,16.186   c1.73,10.093,16.695,20.621,26.536,24.16c-9.837,3.467-24.989,14.081-26.731,24.243C17.055,81.257,15.592,87,15.054,90h-2.945   C9.84,90,8,91.799,8,94s1.84,4,4.109,4h76.781C91.16,98,93,96.201,93,94S91.16,90,88.891,90z M23.149,23.117   C22.12,16.796,20.985,12,20.433,9h60.578c-0.553,3-1.431,7.874-1.954,14.117c-0.912,10.88-20.273,22.096-27.049,23.113l0.849-6.656   C58.652,37.57,69.983,30,70.56,22.562c0.098-1.266,0.215-2.421,0.341-3.503c-4.963,2.929-11.684,5.491-19.292,7.263   c-6.77,1.576-13.215,2.297-18.607,2.132c4.086,5.716,11.828,10.578,16.163,11.516l0.804,6.248   C42.276,45.124,24.899,33.864,23.149,23.117z M20.182,90c0.53-3,1.707-7.75,2.771-14.289c1.744-10.707,18.999-21.851,26.732-23.014   l0.845,19.432C45.527,72.683,31.531,80,29.885,85h42.207C71.152,80,57.43,73.011,52.01,72.16l0.561-19.357   c7.351,1.652,25.41,12.421,26.291,22.921C79.402,82.178,80.322,87,80.87,90H20.182z"/></g><text x="0" y="115" fill="#000000" font-size="5px" font-weight="bold" font-family="'Helvetica Neue', Helvetica, Arial-Unicode, Arial, Sans-serif">Created by Yuvika Koul</text><text x="0" y="120" fill="#000000" font-size="5px" font-weight="bold" font-family="'Helvetica Neue', Helvetica, Arial-Unicode, Arial, Sans-serif">from the Noun Project</text></svg>