<svg xmlns="http://www.w3.org/2000/svg" xmlns:xlink="http://www.w3.org/1999/xlink" xmlns:serif="http://www.serif.com/" viewBox="0 0 100 125" version="1.1" xml:space="preserve" style="" x="0px" y="0px" fill-rule="evenodd" clip-rule="evenodd" stroke-linejoin="round" stroke-miterlimit="1.41421"><path d="M87,10L13,10C7.514,10 3,14.514 3,20L3,62C3,67.486 7.514,72 13,72L39.51,72L37,86L33,86C31.903,86 31,86.903 31,88C31,89.097 31.903,90 33,90L67,90C68.097,90 69,89.097 69,88C69,86.903 68.097,86 67,86L63,86L60.49,72L87,72C92.486,72 97,67.486 97,62L97,20C97,14.514 92.486,10 87,10ZM58.94,86L41.06,86L43.58,72L56.42,72L58.94,86ZM93,62C93,65.292 90.292,68 87,68L13,68C10.087,67.997 7.576,65.873 7.09,63L84,63C85.097,63 86,62.097 86,61C86,59.903 85.097,59 84,59L7,59L7,20C7,16.708 9.708,14 13,14L87,14C90.292,14 93,16.708 93,20L93,62Z" style="" fill-rule="nonzero"/><path d="M59.55,31.08C58.497,30.78 57.383,31.398 57.08,32.45L54.57,41.22L51.82,35.22C51.51,34.489 50.794,34.009 50,34C49.216,34.002 48.502,34.465 48.18,35.18L45.4,41.32L42.93,32.46C42.689,31.597 41.896,30.996 41,30.996C39.901,30.996 38.996,31.901 38.996,33C38.996,33.183 39.021,33.364 39.07,33.54L43.07,47.71C43.299,48.518 44.013,49.099 44.85,49.16L45,49.16C45.765,49.147 46.459,48.695 46.78,48L50,40.85L53.17,47.85C53.495,48.56 54.207,49.017 54.988,49.017C55.877,49.017 56.664,48.424 56.91,47.57L60.91,33.57C60.965,33.385 60.993,33.194 60.993,33.001C60.993,32.113 60.402,31.327 59.55,31.08Z" style="" fill-rule="nonzero"/><path d="M33.55,31.08C32.497,30.78 31.383,31.398 31.08,32.45L28.57,41.22L25.82,35.22C25.51,34.489 24.794,34.009 24,34C23.216,34.002 22.502,34.465 22.18,35.18L19.4,41.32L16.93,32.46C16.689,31.597 15.896,30.996 15,30.996C13.901,30.996 12.996,31.901 12.996,33C12.996,33.183 13.021,33.364 13.07,33.54L17.07,47.71C17.299,48.518 18.013,49.099 18.85,49.16L19,49.16C19.765,49.147 20.459,48.695 20.78,48L24,40.85L27.17,47.85C27.495,48.56 28.207,49.017 28.988,49.017C29.877,49.017 30.664,48.424 30.91,47.57L34.91,33.57C34.965,33.385 34.993,33.194 34.993,33.001C34.993,32.113 34.402,31.327 33.55,31.08Z" style="" fill-rule="nonzero"/><path d="M85.55,31.08C84.497,30.78 83.383,31.398 83.08,32.45L80.57,41.22L77.82,35.22C77.51,34.489 76.794,34.009 76,34C75.216,34.002 74.502,34.465 74.18,35.18L71.4,41.32L68.93,32.46C68.689,31.597 67.896,30.996 67,30.996C65.901,30.996 64.996,31.901 64.996,33C64.996,33.183 65.021,33.364 65.07,33.54L69.07,47.71C69.299,48.518 70.013,49.099 70.85,49.16L71,49.16C71.765,49.147 72.459,48.695 72.78,48L76,40.85L79.17,47.85C79.495,48.56 80.207,49.017 80.988,49.017C81.877,49.017 82.664,48.424 82.91,47.57L86.91,33.57C86.965,33.385 86.993,33.194 86.993,33.001C86.993,32.113 86.402,31.327 85.55,31.08Z" style="" fill-rule="nonzero"/><text x="0" y="115" fill="#000000" font-size="5px" font-weight="bold" font-family="'Helvetica Neue', Helvetica, Arial-Unicode, Arial, Sans-serif">Created by Andreas Vögele</text><text x="0" y="120" fill="#000000" font-size="5px" font-weight="bold" font-family="'Helvetica Neue', Helvetica, Arial-Unicode, Arial, Sans-serif">from the Noun Project</text></svg>