<svg xmlns="http://www.w3.org/2000/svg" xmlns:xlink="http://www.w3.org/1999/xlink" version="1.1" x="0px" y="0px" viewBox="0 0 64 80" style="enable-background:new 0 0 64 64;" xml:space="preserve"><g><g><g><path d="M37.114,30.68c-0.553,0-1-0.448-1-1v-2.307c0-0.552,0.447-1,1-1s1,0.448,1,1v2.307     C38.114,30.232,37.667,30.68,37.114,30.68z"/><path d="M26.863,30.68c-0.552,0-1-0.448-1-1v-2.307c0-0.552,0.448-1,1-1s1,0.448,1,1v2.307     C27.863,30.232,27.416,30.68,26.863,30.68z"/><path d="M31.989,18.395c-3.975,0-7.208-3.229-7.208-7.197S28.014,4,31.989,4c3.975,0,7.208,3.229,7.208,7.197     S35.964,18.395,31.989,18.395z M31.989,6c-2.872,0-5.208,2.332-5.208,5.197s2.336,5.197,5.208,5.197s5.208-2.332,5.208-5.197     S34.86,6,31.989,6z"/><path d="M31.989,28.001L31.989,28.001c-0.328,0-0.634-0.161-0.821-0.43l-1.922-2.768c-0.116-0.167-0.179-0.366-0.179-0.57v-7.145     h2v6.832l0.922,1.328l0.922-1.328v-6.832h2v7.145c0,0.204-0.063,0.403-0.179,0.57l-1.922,2.768     C32.623,27.84,32.316,28.001,31.989,28.001z"/><path d="M42.831,30.643l-1.977-0.311l0.01-0.06v-4.607c0-3.712-2.15-7.027-5.281-8.229c-2.179,1.252-5,1.255-7.179,0.005     c-3.124,1.206-5.269,4.519-5.269,8.224v4.822h-2v-4.822c0-4.732,2.915-8.959,7.089-10.279c0.291-0.092,0.607-0.045,0.859,0.124     c1.722,1.157,4.097,1.157,5.818-0.003c0.251-0.17,0.566-0.217,0.858-0.125c4.183,1.314,7.104,5.542,7.104,10.284v4.685     c0,0.052-0.004,0.104-0.012,0.155L42.831,30.643z"/></g><g><path d="M41.767,60H22.233c-0.552,0-1-0.448-1-1v-4.363c0-4.251,2.62-8.056,6.518-9.467c0.337-0.123,0.716-0.054,0.99,0.18     c0.928,0.792,2.051,1.211,3.249,1.211c1.184,0,2.339-0.432,3.253-1.216c0.274-0.234,0.654-0.302,0.99-0.182     c3.908,1.407,6.534,5.214,6.534,9.474V59C42.767,59.552,42.319,60,41.767,60z M23.233,58h17.534v-3.363     c0-3.232-1.872-6.135-4.71-7.391c-2.376,1.701-5.748,1.705-8.126,0.006c-2.831,1.259-4.697,4.159-4.697,7.385V58z"/><g><path d="M37.064,59.344c-0.553,0-1-0.448-1-1v-2.147c0-0.552,0.447-1,1-1s1,0.448,1,1v2.147      C38.064,58.896,37.617,59.344,37.064,59.344z"/></g><g><path d="M26.914,59.344c-0.552,0-1-0.448-1-1v-2.147c0-0.552,0.448-1,1-1s1,0.448,1,1v2.147      C27.914,58.896,27.466,59.344,26.914,59.344z"/></g><path d="M31.989,44.762c-3.404,0-6.173-2.765-6.173-6.164s2.769-6.165,6.173-6.165c3.403,0,6.172,2.766,6.172,6.165     S35.393,44.762,31.989,44.762z M31.989,34.434c-2.301,0-4.173,1.868-4.173,4.165c0,2.296,1.872,4.164,4.173,4.164     s4.172-1.868,4.172-4.164C36.161,36.302,34.29,34.434,31.989,34.434z"/></g><path d="M62,49.922H39.788v-2h20.298L48.649,31.488H15.351L3.914,47.922h20.298v2H2c-0.373,0-0.714-0.207-0.886-0.537    s-0.147-0.729,0.065-1.034l12.828-18.435c0.187-0.269,0.494-0.429,0.821-0.429h34.344c0.327,0,0.634,0.16,0.821,0.429    l12.828,18.435c0.212,0.306,0.237,0.704,0.065,1.034C62.714,49.715,62.372,49.922,62,49.922z"/></g></g><text x="0" y="79" fill="#000000" font-size="5px" font-weight="bold" font-family="'Helvetica Neue', Helvetica, Arial-Unicode, Arial, Sans-serif">Created by SBTS</text><text x="0" y="84" fill="#000000" font-size="5px" font-weight="bold" font-family="'Helvetica Neue', Helvetica, Arial-Unicode, Arial, Sans-serif">from the Noun Project</text></svg>