<svg xmlns="http://www.w3.org/2000/svg" xmlns:xlink="http://www.w3.org/1999/xlink" viewBox="0 0 60 75" version="1.1" x="0px" y="0px"><title>3D Printing - Outline - 001 - Software</title><desc>Created with Sketch.</desc><g stroke="none" stroke-width="1" fill="none" fill-rule="evenodd"><g fill-rule="nonzero" fill="#000000"><path d="M9,33 L7,33 C5.34389511,32.9981923 4.00180771,31.6561049 4,30 L4,7 C4.00180771,5.34389511 5.34389511,4.00180771 7,4 L9,4 C10.6561049,4.00180771 11.9981923,5.34389511 12,7 L12,30 C11.9981923,31.6561049 10.6561049,32.9981923 9,33 L9,33 Z M7,6 C6.44801218,6.00071619 6.00071619,6.44801218 6,7 L6,30 C6.00071619,30.5519878 6.44801218,30.9992838 7,31 L9,31 C9.55198782,30.9992838 9.99928381,30.5519878 10,30 L10,7 C9.99928381,6.44801218 9.55198782,6.00071619 9,6 L7,6 Z"/><path d="M53,13 L51,13 C49.3438951,12.9981923 48.0018077,11.6561049 48,10 L48,7 C48.0018077,5.34389511 49.3438951,4.00180771 51,4 L53,4 C54.6561049,4.00180771 55.9981923,5.34389511 56,7 L56,10 C55.9981923,11.6561049 54.6561049,12.9981923 53,13 Z M51,6 C50.4480122,6.00071619 50.0007162,6.44801218 50,7 L50,10 C50.0007162,10.5519878 50.4480122,10.9992838 51,11 L53,11 C53.5519878,10.9992838 53.9992838,10.5519878 54,10 L54,7 C53.9992838,6.44801218 53.5519878,6.00071619 53,6 L51,6 Z"/><path d="M53,23 L51,23 C49.3438951,22.9981923 48.0018077,21.6561049 48,20 L48,18 C48.0018077,16.3438951 49.3438951,15.0018077 51,15 L53,15 C54.6561049,15.0018077 55.9981923,16.3438951 56,18 L56,20 C55.9981923,21.6561049 54.6561049,22.9981923 53,23 L53,23 Z M51,17 C50.4480122,17.0007162 50.0007162,17.4480122 50,18 L50,20 C50.0007162,20.5519878 50.4480122,20.9992838 51,21 L53,21 C53.5519878,20.9992838 53.9992838,20.5519878 54,20 L54,18 C53.9992838,17.4480122 53.5519878,17.0007162 53,17 L51,17 Z"/><path d="M53,33 L51,33 C49.3438951,32.9981923 48.0018077,31.6561049 48,30 L48,28 C48.0018077,26.3438951 49.3438951,25.0018077 51,25 L53,25 C54.6561049,25.0018077 55.9981923,26.3438951 56,28 L56,30 C55.9981923,31.6561049 54.6561049,32.9981923 53,33 L53,33 Z M51,27 C50.4480122,27.0007162 50.0007162,27.4480122 50,28 L50,30 C50.0007162,30.5519878 50.4480122,30.9992838 51,31 L53,31 C53.5519878,30.9992838 53.9992838,30.5519878 54,30 L54,28 C53.9992838,27.4480122 53.5519878,27.0007162 53,27 L51,27 Z"/><path d="M60,37 L0,37 L0,3 C0.00180771165,1.34389511 1.34389511,0.00180771165 3,0 L57,0 C58.6561049,0.00180771165 59.9981923,1.34389511 60,3 L60,37 Z M2,35 L58,35 L58,3 C57.9992838,2.44801218 57.5519878,2.00071619 57,2 L3,2 C2.44801218,2.00071619 2.00071619,2.44801218 2,3 L2,35 Z"/><path d="M57,48 L3,48 C1.34389511,47.9981923 0.00180771165,46.6561049 0,45 L0,35 L58.70117,35 C59.418197,35.0007166 59.9992834,35.581803 60,36.29883 L60,45 C59.9981923,46.6561049 58.6561049,47.9981923 57,48 Z M2,37 L2,45 C2.00071619,45.5519878 2.44801218,45.9992838 3,46 L57,46 C57.5519878,45.9992838 57.9992838,45.5519878 58,45 L58,37 L2,37 Z"/><path d="M36.811,60 L23.189,60 C22.3383682,59.9965349 21.5661901,59.5023034 21.2068162,58.7313061 C20.8474424,57.9603087 20.9654725,57.0511373 21.5098,56.39746 C22.5558716,55.1365785 23.5316355,53.8189859 24.43265,52.45068 C26.42874,49.41357 25.564,47.46093 25.55472,47.44189 L24.84424,46 L35.15576,46 L34.45068,47.43164 C34.39453,47.55864 33.61035,49.47314 35.56738,52.45064 C36.4684028,53.8190631 37.4443365,55.1366641 38.49072,56.39742 C39.0348517,57.0512434 39.1526951,57.960405 38.7932386,58.7313495 C38.4337821,59.5022939 37.6616186,59.9964855 36.811,60 Z M27.709,48 C27.8408182,49.9806229 27.2729549,51.9446457 26.10451,53.54932 C25.1627874,54.9793275 24.1428424,56.3562589 23.04933,57.67383 C22.9953229,57.7330248 22.9841949,57.8197137 23.0215,57.89063 C23.048049,57.9592773 23.1154718,58.0033013 23.189,58 L36.811,58 C36.884521,58.0032925 36.9519333,57.95927 36.97848,57.89063 C37.0156885,57.8197726 37.004775,57.7332314 36.95114,57.67383 C35.8573191,56.3563844 34.8372077,54.9794445 33.89548,53.54932 C32.7270386,51.9446443 32.159179,49.9806217 32.291,48 L27.709,48 Z"/><path d="M25,32.916 C24.818686,32.9160859 24.6407711,32.8667959 24.48535,32.77342 L19.48535,29.77342 C19.1841907,29.5927064 18.9999454,29.2672183 19,28.916 L19,21.916 C18.9999454,21.5647817 19.1841907,21.2392936 19.48535,21.05858 L24.48535,18.05858 C24.8020264,17.8681495 25.1979736,17.8681495 25.51465,18.05858 L30.51465,21.05858 C30.8158093,21.2392936 31.0000546,21.5647817 31,21.916 L31,28.916 C31.0000546,29.2672183 30.8158093,29.5927064 30.51465,29.77342 L25.51465,32.77342 C25.3592289,32.8667959 25.181314,32.9160859 25,32.916 L25,32.916 Z M21,28.34959 L25,30.75 L29,28.34961 L29,22.48242 L25,20.082 L21,22.48239 L21,28.34959 Z"/><path d="M25,32.916 C24.4477153,32.916 24,32.4682847 24,31.916 L24,25.48242 L19.48535,22.77342 C19.1790233,22.5895533 18.9940575,22.2562301 19.0001275,21.89901 C19.0061974,21.54179 19.2023809,21.2149433 19.5147775,21.04159 C19.8271741,20.8682367 20.2083233,20.8747133 20.51465,21.05858 L25.51465,24.05858 C25.8158093,24.2392936 26.0000546,24.5647817 26,24.916 L26,31.916 C26,32.4682847 25.5522847,32.916 25,32.916 Z"/><path d="M25.001,25.916 C24.5513587,25.9164512 24.1567067,25.616743 24.0364344,25.1834854 C23.9161621,24.7502279 24.0998481,24.2899729 24.48538,24.05858 L29.48538,21.05858 C29.95892,20.7743467 30.5732167,20.92781 30.85745,21.40135 C31.1416833,21.87489 30.98822,22.4891867 30.51468,22.77342 L25.51468,25.77342 C25.3596097,25.8667857 25.1820081,25.9160818 25.001,25.916 L25.001,25.916 Z"/><path d="M35,32.916 C34.818686,32.9160859 34.6407711,32.8667959 34.48535,32.77342 L29.48535,29.77342 C29.1841907,29.5927064 28.9999454,29.2672183 29,28.916 L29,21.916 C28.9999454,21.5647817 29.1841907,21.2392936 29.48535,21.05858 L34.48535,18.05858 C34.8020264,17.8681495 35.1979736,17.8681495 35.51465,18.05858 L40.51465,21.05858 C40.8158093,21.2392936 41.0000546,21.5647817 41,21.916 L41,28.916 C41.0000546,29.2672183 40.8158093,29.5927064 40.51465,29.77342 L35.51465,32.77342 C35.3592289,32.8667959 35.181314,32.9160859 35,32.916 L35,32.916 Z M31,28.34959 L35,30.75 L39,28.34961 L39,22.48242 L35,20.082 L31,22.48239 L31,28.34959 Z"/><path d="M35,32.916 C34.4477153,32.916 34,32.4682847 34,31.916 L34,25.48242 L29.48535,22.77342 C29.01181,22.4891867 28.8583467,21.87489 29.14258,21.40135 C29.4268133,20.92781 30.04111,20.7743467 30.51465,21.05858 L35.51465,24.05858 C35.8158093,24.2392936 36.0000546,24.5647817 36,24.916 L36,31.916 C36,32.4682847 35.5522847,32.916 35,32.916 Z"/><path d="M35.001,25.916 C34.5513587,25.9164512 34.1567067,25.616743 34.0364344,25.1834854 C33.9161621,24.7502279 34.0998481,24.2899729 34.48538,24.05858 L39.48538,21.05858 C39.7917067,20.8747133 40.1728559,20.8682367 40.4852525,21.04159 C40.7976491,21.2149433 40.9938326,21.54179 40.9999025,21.89901 C41.0059725,22.2562301 40.8210067,22.5895533 40.51468,22.77342 L35.51468,25.77342 C35.3596097,25.8667857 35.1820081,25.9160818 35.001,25.916 L35.001,25.916 Z"/><path d="M30,22.916 C29.818686,22.9160859 29.6407711,22.8667959 29.48535,22.77342 L24.48535,19.77342 C24.1841907,19.5927064 23.9999454,19.2672183 24,18.916 L24,11.916 C23.9999454,11.5647817 24.1841907,11.2392936 24.48535,11.05858 L29.48535,8.05858 C29.8020264,7.86814949 30.1979736,7.86814949 30.51465,8.05858 L35.51465,11.05858 C35.8158093,11.2392936 36.0000546,11.5647817 36,11.916 L36,18.916 C36.0000546,19.2672183 35.8158093,19.5927064 35.51465,19.77342 L30.51465,22.77342 C30.3592289,22.8667959 30.181314,22.9160859 30,22.916 L30,22.916 Z M26,18.34959 L30,20.75 L34,18.34961 L34,12.48242 L30,10.082 L26,12.48239 L26,18.34959 Z"/><path d="M30,22.916 C29.4477153,22.916 29,22.4682847 29,21.916 L29,15.48242 L24.48535,12.77342 C24.1790233,12.5895533 23.9940575,12.2562301 24.0001275,11.89901 C24.0061974,11.54179 24.2023809,11.2149433 24.5147775,11.04159 C24.8271741,10.8682367 25.2083233,10.8747133 25.51465,11.05858 L30.51465,14.05858 C30.8158093,14.2392936 31.0000546,14.5647817 31,14.916 L31,21.916 C31,22.4682847 30.5522847,22.916 30,22.916 Z"/><path d="M30.001,15.916 C29.5513587,15.9164512 29.1567067,15.616743 29.0364344,15.1834854 C28.9161621,14.7502279 29.0998481,14.2899729 29.48538,14.05858 L34.48538,11.05858 C34.7917067,10.8747133 35.1728559,10.8682367 35.4852525,11.04159 C35.7976491,11.2149433 35.9938326,11.54179 35.9999025,11.89901 C36.0059725,12.2562301 35.8210067,12.5895533 35.51468,12.77342 L30.51468,15.77342 C30.3596097,15.8667857 30.1820081,15.9160818 30.001,15.916 L30.001,15.916 Z"/></g></g><text x="0" y="75" fill="#000000" font-size="5px" font-weight="bold" font-family="'Helvetica Neue', Helvetica, Arial-Unicode, Arial, Sans-serif">Created by Creaticca Creative Agency</text><text x="0" y="80" fill="#000000" font-size="5px" font-weight="bold" font-family="'Helvetica Neue', Helvetica, Arial-Unicode, Arial, Sans-serif">from the Noun Project</text></svg>